<svg xmlns="http://www.w3.org/2000/svg" viewBox="0 0 24 24" fill="#000000">
  <path d="M12 2.163c3.204 0 3.584.012 4.85.07 1.366.062 2.633.35 3.608 1.325.975.975 1.263 2.242 1.325 3.608.058 1.266.07 1.646.07 4.85s-.012 3.584-.07 4.85c-.062 1.366-.35 2.633-1.325 3.608-.975.975-2.242 1.263-3.608 1.325-1.266.058-1.646.07-4.85.07s-3.584-.012-4.85-.07c-1.366-.062-2.633-.35-3.608-1.325-.975-.975-1.263-2.242-1.325-3.608C2.175 15.584 2.163 15.204 2.163 12s.012-3.584.07-4.85c.062-1.366.35-2.633 1.325-3.608.975-.975 2.242-1.263 3.608-1.325C8.416 2.175 8.796 2.163 12 2.163zm0 1.837c-3.155 0-3.523.012-4.767.069-1.023.047-1.58.216-1.948.363-.491.19-.84.418-1.208.786-.368.368-.596.717-.786 1.208-.147.368-.316.925-.363 1.948-.057 1.244-.069 1.612-.069 4.767s.012 3.523.069 4.767c.047 1.023.216 1.58.363 1.948.19.491.418.84.786 1.208.368.368.717.596 1.208.786.368.147.925.316 1.948.363 1.244.057 1.612.069 4.767.069s3.523-.012 4.767-.069c1.023-.047 1.58-.216 1.948-.363.491-.19.84-.418 1.208-.786.368-.368.596-.717.786-1.208.147-.368.316-.925.363-1.948.057-1.244.069-1.612.069-4.767s-.012-3.523-.069-4.767c-.047-1.023-.216-1.58-.363-1.948-.19-.491-.418-.84-.786-1.208-.368-.368-.717-.596-1.208-.786-.368-.147-.925-.316-1.948-.363-1.244-.057-1.612-.069-4.767-.069zm0 3.351a4.649 4.649 0 110 9.297 4.649 4.649 0 010-9.297zm0 1.837a2.812 2.812 0 100 5.625 2.812 2.812 0 000-5.625zm5.833-2.917a1.087 1.087 0 110 2.174 1.087 1.087 0 010-2.174z"/>
</svg>