<svg xmlns="http://www.w3.org/2000/svg" viewBox="0 0 24 24" fill="#000000">
  <path d="M12 0C5.373 0 0 5.373 0 12s5.373 12 12 12 12-5.373 12-12S18.627 0 12 0zm-2.52 18.195c-1.334 0-2.415-1.081-2.415-2.414V8.22c0-1.333 1.081-2.415 2.415-2.415s2.414 1.082 2.414 2.415v7.561c0 1.333-1.08 2.414-2.414 2.414zm5.04 0c-1.334 0-2.415-1.081-2.415-2.414V8.22c0-1.333 1.081-2.415 2.415-2.415s2.414 1.082 2.414 2.415v7.561c0 1.333-1.08 2.414-2.414 2.414zm-1.317-5.57c0-1.38 1.12-2.5 2.5-2.5s2.5 1.12 2.5 2.5-1.12 2.5-2.5 2.5-2.5-1.12-2.5-2.5zm-3.406 0c0-1.38 1.12-2.5 2.5-2.5s2.5 1.12 2.5 2.5-1.12 2.5-2.5 2.5-2.5-1.12-2.5-2.5z"/>
</svg>